<?xml version="1.0" encoding="UTF-8" standalone="no"?>
<!-- Created with Inkscape (http://www.inkscape.org/) -->

<svg
   xmlns:dc="http://purl.org/dc/elements/1.1/"
   xmlns:cc="http://creativecommons.org/ns#"
   xmlns:rdf="http://www.w3.org/1999/02/22-rdf-syntax-ns#"
   xmlns:svg="http://www.w3.org/2000/svg"
   xmlns="http://www.w3.org/2000/svg"
   xmlns:sodipodi="http://sodipodi.sourceforge.net/DTD/sodipodi-0.dtd"
   xmlns:inkscape="http://www.inkscape.org/namespaces/inkscape"
   width="1000"
   height="1000"
   id="svg3007"
   version="1.1"
   inkscape:version="0.48.3.1 r9886"
   sodipodi:docname="icon-show.svg">
  <defs
     id="defs3009">
    <filter
       inkscape:collect="always"
       id="filter3928"
       x="-0.36441576"
       width="1.7288315"
       y="-3.2169116"
       height="7.4338232">
      <feGaussianBlur
         inkscape:collect="always"
         stdDeviation="54.971914"
         id="feGaussianBlur3930" />
    </filter>
    <clipPath
       clipPathUnits="userSpaceOnUse"
       id="clipPath4146">
      <path
         style="font-size:medium;font-style:normal;font-variant:normal;font-weight:normal;font-stretch:normal;text-indent:0;text-align:start;text-decoration:none;line-height:normal;letter-spacing:normal;word-spacing:normal;text-transform:none;direction:ltr;block-progression:tb;writing-mode:lr-tb;text-anchor:start;baseline-shift:baseline;color:#000000;fill:#000000;fill-opacity:1;stroke:none;stroke-width:150;marker:none;visibility:visible;display:inline;overflow:visible;enable-background:accumulate;font-family:Sans;-inkscape-font-specification:Sans"
         d="M 494.65625,32.28125 C 323.63662,33.96167 165.80916,153.20984 41.8125,358.1875 l 128.375,77.625 C 278.65227,256.51045 394.78191,183.27704 496.125,182.28125 c 101.34309,-0.99579 214.58712,69.17193 319.65625,243.4375 l 128.4375,-77.4375 C 823.20021,147.56229 665.67588,30.60083 494.65625,32.28125 z"
         id="path4148"
         inkscape:connector-curvature="0" />
    </clipPath>
  </defs>
  <sodipodi:namedview
     id="base"
     pagecolor="#ffffff"
     bordercolor="#666666"
     borderopacity="1.0"
     inkscape:pageopacity="0.0"
     inkscape:pageshadow="2"
     inkscape:zoom="0.5"
     inkscape:cx="457.61777"
     inkscape:cy="755.09506"
     inkscape:document-units="px"
     inkscape:current-layer="layer1"
     showgrid="false"
     inkscape:window-width="1742"
     inkscape:window-height="1356"
     inkscape:window-x="434"
     inkscape:window-y="64"
     inkscape:window-maximized="0"
     showguides="true"
     inkscape:guide-bbox="true" />
  <metadata
     id="metadata3012">
    <rdf:RDF>
      <cc:Work
         rdf:about="">
        <dc:format>image/svg+xml</dc:format>
        <dc:type
           rdf:resource="http://purl.org/dc/dcmitype/StillImage" />
        <dc:title></dc:title>
      </cc:Work>
    </rdf:RDF>
  </metadata>
  <g
     inkscape:groupmode="layer"
     id="layer2"
     inkscape:label="shadow"
     style="display:inline">
    <path
       sodipodi:type="arc"
       style="fill:#000000;fill-opacity:1;stroke:none;display:inline;filter:url(#filter3928);opacity:1"
       id="path3859"
       sodipodi:cx="537.40112"
       sodipodi:cy="917.26849"
       sodipodi:rx="181.01933"
       sodipodi:ry="20.506096"
       d="m 718.42046,917.26849 a 181.01933,20.506096 0 1 1 -362.03867,0 181.01933,20.506096 0 1 1 362.03867,0 z"
       transform="matrix(1.4875471,0,0,0.71765737,-297.40948,281.7155)" />
  </g>
  <g
     inkscape:groupmode="layer"
     id="layer1"
     inkscape:label="show"
     style="display:none">
    <g
       id="eye-open"
       inkscape:label="#g4065">
      <path
         sodipodi:nodetypes="zzzzzsssss"
         inkscape:connector-curvature="0"
         id="path3956"
         d="M 501.00003,164 C 300.0152,164 140,387.01516 140,428.99999 140,470.98482 300.00006,691 501.00003,691 702,691 860,465.98482 860,428.99999 860,392.01516 701.98486,164 501.00003,164 z m 0,74.04083 c 107.066,0 190.95916,83.89315 190.95916,190.95916 0,107.066 -83.89316,190.95916 -190.95916,190.95916 -107.06601,0 -190.95917,-83.89316 -190.95917,-190.95916 0,-107.06601 83.89316,-190.95916 190.95917,-190.95916 z"
         style="font-size:medium;font-style:normal;font-variant:normal;font-weight:normal;font-stretch:normal;text-indent:0;text-align:start;text-decoration:none;line-height:normal;letter-spacing:normal;word-spacing:normal;text-transform:none;direction:ltr;block-progression:tb;writing-mode:lr-tb;text-anchor:start;baseline-shift:baseline;color:#000000;fill:#000000;fill-opacity:1;stroke:none;stroke-width:176.43006897;marker:none;visibility:visible;display:inline;overflow:visible;enable-background:accumulate;font-family:Sans;-inkscape-font-specification:Sans" />
      <path
         transform="translate(236,407)"
         d="m 370.42031,22.499998 a 106.92031,106.92031 0 1 1 -213.84062,0 106.92031,106.92031 0 1 1 213.84062,0 z"
         sodipodi:ry="106.92031"
         sodipodi:rx="106.92031"
         sodipodi:cy="22.499998"
         sodipodi:cx="263.5"
         id="path3972"
         style="fill:#000000;fill-opacity:1;stroke:none"
         sodipodi:type="arc" />
    </g>
    <path
       sodipodi:nodetypes="ccccccccccccc"
       inkscape:connector-curvature="0"
       id="path4035-2"
       d="M 163.34168,274.24947 500,623.35564 252.43713,193.37584 500,623.35564 367.69554,134.68597 500,623.35564 500,110.64435 500,623.35564 630.03215,132.56466 500,623.35564 744.58344,193.37584 500,623.35564 834.38604,274.24947"
       style="fill:none;stroke:#000000;stroke-width:80;stroke-linecap:round;stroke-linejoin:round;stroke-miterlimit:4;stroke-opacity:1;stroke-dasharray:none;display:inline"
       clip-path="url(#clipPath4146)" />
  </g>
  <g
     inkscape:groupmode="layer"
     id="layer5"
     inkscape:label="hide"
     style="display:inline">
    <g
       id="eye-shut"
       inkscape:label="#g4061">
      <path
         sodipodi:nodetypes="zzzzz"
         inkscape:connector-curvature="0"
         id="path3956-4"
         d="M 501,164 C 300.0152,164 140,387.01516 140,428.99999 140,470.98482 300.0001,691 501,691 702,691 860,465.98482 860,428.99999 860,392.01516 701.9849,164 501,164 z"
         style="font-size:medium;font-style:normal;font-variant:normal;font-weight:normal;font-stretch:normal;text-indent:0;text-align:start;text-decoration:none;line-height:normal;letter-spacing:normal;word-spacing:normal;text-transform:none;direction:ltr;block-progression:tb;writing-mode:lr-tb;text-anchor:start;baseline-shift:baseline;color:#000000;fill:#000000;fill-opacity:1;stroke:none;stroke-width:176.43006897;marker:none;visibility:visible;display:inline;overflow:visible;enable-background:accumulate;font-family:Sans;-inkscape-font-specification:Sans" />
      <path
         sodipodi:nodetypes="ccccccccccccc"
         inkscape:connector-curvature="0"
         id="path4035"
         d="M 163.34167,606.84863 500,257.74246 252.43712,687.72226 500,257.74246 367.69553,746.41212 500,257.74246 500,770.45375 500,257.74246 630.03214,748.53344 500,257.74246 744.58344,687.72226 500,257.74246 834.386,606.84863"
         style="fill:none;stroke:#000000;stroke-width:80;stroke-linecap:round;stroke-linejoin:round;stroke-miterlimit:4;stroke-opacity:1;stroke-dasharray:none" />
    </g>
  </g>
</svg>
