<?xml version="1.0" encoding="UTF-8" standalone="no"?>
<!-- Created with Inkscape (http://www.inkscape.org/) -->

<svg
   xmlns:dc="http://purl.org/dc/elements/1.1/"
   xmlns:cc="http://creativecommons.org/ns#"
   xmlns:rdf="http://www.w3.org/1999/02/22-rdf-syntax-ns#"
   xmlns:svg="http://www.w3.org/2000/svg"
   xmlns="http://www.w3.org/2000/svg"
   xmlns:sodipodi="http://sodipodi.sourceforge.net/DTD/sodipodi-0.dtd"
   xmlns:inkscape="http://www.inkscape.org/namespaces/inkscape"
   width="1000"
   height="1000"
   id="svg3007"
   version="1.1"
   inkscape:version="0.48.3.1 r9886"
   sodipodi:docname="icon-rotate.svg">
  <defs
     id="defs3009">
    <filter
       inkscape:collect="always"
       id="filter3873"
       x="-0.18220787"
       width="1.3644157"
       y="-1.6084557"
       height="4.2169114">
      <feGaussianBlur
         inkscape:collect="always"
         stdDeviation="27.485956"
         id="feGaussianBlur3875" />
    </filter>
    <filter
       inkscape:collect="always"
       id="filter3928"
       x="-0.36441576"
       width="1.7288315"
       y="-3.2169116"
       height="7.4338232">
      <feGaussianBlur
         inkscape:collect="always"
         stdDeviation="54.971914"
         id="feGaussianBlur3930" />
    </filter>
  </defs>
  <sodipodi:namedview
     id="base"
     pagecolor="#ffffff"
     bordercolor="#666666"
     borderopacity="1.0"
     inkscape:pageopacity="0.0"
     inkscape:pageshadow="2"
     inkscape:zoom="0.125"
     inkscape:cx="485.72937"
     inkscape:cy="323.21698"
     inkscape:document-units="px"
     inkscape:current-layer="layer1"
     showgrid="false"
     inkscape:window-width="1742"
     inkscape:window-height="1356"
     inkscape:window-x="434"
     inkscape:window-y="64"
     inkscape:window-maximized="0"
     showguides="true"
     inkscape:guide-bbox="true" />
  <metadata
     id="metadata3012">
    <rdf:RDF>
      <cc:Work
         rdf:about="">
        <dc:format>image/svg+xml</dc:format>
        <dc:type
           rdf:resource="http://purl.org/dc/dcmitype/StillImage" />
        <dc:title />
      </cc:Work>
    </rdf:RDF>
  </metadata>
  <g
     inkscape:groupmode="layer"
     id="layer2"
     inkscape:label="shadow"
     style="display:inline">
    <path
       sodipodi:type="arc"
       style="fill:#000000;fill-opacity:1;stroke:none;display:inline;filter:url(#filter3928)"
       id="path3859"
       sodipodi:cx="537.40112"
       sodipodi:cy="917.26849"
       sodipodi:rx="181.01933"
       sodipodi:ry="20.506096"
       d="m 718.42046,917.26849 a 181.01933,20.506096 0 1 1 -362.03867,0 181.01933,20.506096 0 1 1 362.03867,0 z"
       transform="matrix(1.4875471,0,0,0.71765737,-297.40948,281.7155)" />
  </g>
  <g
     inkscape:label="rotate"
     inkscape:groupmode="layer"
     id="layer1"
     style="display:inline">
    <path
       style="font-size:medium;font-style:normal;font-variant:normal;font-weight:normal;font-stretch:normal;text-indent:0;text-align:start;text-decoration:none;line-height:normal;letter-spacing:normal;word-spacing:normal;text-transform:none;direction:ltr;block-progression:tb;writing-mode:lr-tb;text-anchor:start;baseline-shift:baseline;color:#000000;fill:#ff9800;fill-opacity:1;stroke:none;stroke-width:200;marker:none;visibility:visible;display:inline;overflow:visible;enable-background:accumulate;font-family:Sans;-inkscape-font-specification:Sans"
       d="m 465.5,20 c -219.72944,6e-6 -400.00001,180.27056 -400,400 1e-5,219.72944 187.85443,399.5 390.58387,399.5 12.93892,0.30047 21.62784,-11.64906 21.56676,-22.34859 l 0,-79.99412 0,-75.97755 c 0,-12.10319 -8.25305,-21.85319 -21.56676,-21.60319 C 353.9884,619.57655 265.5,531.64141 265.5,420 c 0,-111.64141 88.35859,-200 200,-200 110.21752,0 198.04519,86.29926 199.96875,196.5 L 865.4375,413.03125 C 861.6491,195.99319 682.57112,19.999994 465.5,20 z"
       id="path3904"
       inkscape:connector-curvature="0"
       sodipodi:nodetypes="sscccccssccs" />
    <path
       style="fill:#ff9800;fill-opacity:1;stroke:#ff9800;stroke-width:7.96945286;stroke-linecap:butt;stroke-linejoin:round;stroke-miterlimit:2.5999999;stroke-opacity:1;stroke-dasharray:none;stroke-dashoffset:0"
       d="m 548.39715,390.5107 c 143.42903,0 286.85806,0 430.28709,0 -67.04397,67.08417 -134.22494,134.51598 -201.28669,201.64527 -4.6522,4.65689 -8.97389,6.18117 -13.70576,6.24567 -4.73186,0.0645 -9.418,-1.52994 -14.05265,-6.20278 C 681.17395,523.16988 605.95651,447.76055 548.39715,390.5107 z"
       id="rect3834"
       inkscape:connector-curvature="0"
       sodipodi:nodetypes="ccszsc" />
  </g>
</svg>
