<?xml version="1.0" encoding="UTF-8" standalone="no"?>
<!-- Created with Inkscape (http://www.inkscape.org/) -->

<svg
   xmlns:dc="http://purl.org/dc/elements/1.1/"
   xmlns:cc="http://creativecommons.org/ns#"
   xmlns:rdf="http://www.w3.org/1999/02/22-rdf-syntax-ns#"
   xmlns:svg="http://www.w3.org/2000/svg"
   xmlns="http://www.w3.org/2000/svg"
   xmlns:sodipodi="http://sodipodi.sourceforge.net/DTD/sodipodi-0.dtd"
   xmlns:inkscape="http://www.inkscape.org/namespaces/inkscape"
   width="1000"
   height="1000"
   id="svg2"
   version="1.1"
   inkscape:version="0.48.3.1 r9886"
   sodipodi:docname="secpass-logo-x.svg"
   inkscape:export-filename="/home/projects/uberdev/git.secpass/logo-16.png"
   inkscape:export-xdpi="1.4400001"
   inkscape:export-ydpi="1.4400001">
  <defs
     id="defs7" />
  <sodipodi:namedview
     id="base"
     pagecolor="#ffffff"
     bordercolor="#666666"
     borderopacity="1.0"
     inkscape:pageopacity="0.0"
     inkscape:pageshadow="2"
     inkscape:zoom="1"
     inkscape:cx="569"
     inkscape:cy="521.12006"
     inkscape:document-units="px"
     inkscape:current-layer="g3801"
     showgrid="false"
     inkscape:window-width="2560"
     inkscape:window-height="1551"
     inkscape:window-x="0"
     inkscape:window-y="25"
     inkscape:window-maximized="1"
     showguides="true"
     inkscape:guide-bbox="true" />
  <metadata
     id="metadata7">
    <rdf:RDF>
      <cc:Work
         rdf:about="">
        <dc:format>image/svg+xml</dc:format>
        <dc:type
           rdf:resource="http://purl.org/dc/dcmitype/StillImage" />
        <dc:title />
      </cc:Work>
    </rdf:RDF>
  </metadata>
  <g
     style="display:inline"
     id="g3801"
     inkscape:groupmode="layer"
     inkscape:label="Layer 1 copy">
    <g
       transform="matrix(0.90004422,0,0,0.90004422,49.977887,93.003538)"
       id="g3803">
      <path
         style="fill:#000000;fill-opacity:1;stroke:none"
         d="M 500 21 C 460.23354 21 428 53.233545 428 93 C 428 121.31761 444.353 145.80271 468.125 157.5625 L 367.75 361 L 143.25 393.625 C 138.23381 358.75948 108.25391 331.96875 72 331.96875 C 32.233545 331.96875 -1.8947806e-14 364.20229 0 403.96875 C -1.8947806e-14 443.73521 32.233545 475.96875 72 475.96875 C 92.207788 475.96875 110.45424 467.62561 123.53125 454.21875 L 286 612.5625 L 247.625 836.15625 C 243.67343 835.48439 239.61171 835.09375 235.46875 835.09375 C 195.70229 835.09375 163.46875 867.32729 163.46875 907.09375 C 163.46875 946.86021 195.70229 979.09375 235.46875 979.09375 C 275.23521 979.09375 307.5 946.86021 307.5 907.09375 C 307.5 894.99109 304.46291 883.60509 299.1875 873.59375 L 500 768.03125 L 700.8125 873.59375 C 695.53709 883.60509 692.5 894.99109 692.5 907.09375 C 692.5 946.86021 724.76479 979.09375 764.53125 979.09375 C 804.29771 979.09375 836.53125 946.86021 836.53125 907.09375 C 836.53125 867.32729 804.29771 835.09375 764.53125 835.09375 C 760.38829 835.09375 756.32657 835.48439 752.375 836.15625 L 714 612.5625 L 876.46875 454.21875 C 889.54576 467.62561 907.79221 475.96875 928 475.96875 C 967.76646 475.96875 1000 443.73521 1000 403.96875 C 1000 364.20229 967.76646 331.96875 928 331.96875 C 891.74609 331.96875 861.76619 358.75948 856.75 393.625 L 632.25 361 L 531.875 157.5625 C 555.647 145.80271 572 121.31761 572 93 C 572 53.233545 539.76646 21 500 21 z M 500 392 L 500.09375 392.5 C 536.50135 392.55073 566 422.08053 566 458.5 C 566 485.20902 550.1331 508.20575 527.3125 518.59375 L 566 698 L 434 698 L 472.6875 518.59375 C 449.8669 508.20575 434 485.20902 434 458.5 C 434 422.08053 463.49865 392.55073 499.90625 392.5 L 500 392 z "
         transform="matrix(1.1110565,0,0,1.1110565,-55.528257,-103.33219)"
         id="path3805" />
    </g>
    <g
       style="fill:#ffffff;fill-opacity:1"
       id="g3821"
       transform="translate(0,30)" />
  </g>
</svg>
